<svg width="14" height="14" viewBox="0 0 14 14" fill="none" xmlns="http://www.w3.org/2000/svg">
<path d="M9.98865 6.65201C11.8246 6.65201 13.3147 5.16196 13.3147 3.326C13.3147 1.49005 11.8246 0 9.98865 0C8.1527 0 6.66265 1.49005 6.66265 3.326C6.66265 5.16196 8.1527 6.65201 9.98865 6.65201ZM13.614 10.3771C13.3546 10.111 13.0286 9.97801 12.6495 9.97801H7.99305L6.60943 9.49241L6.82895 8.86712L7.99305 9.31281H9.85561C10.0884 9.31281 10.2747 9.21968 10.4277 9.06668C10.5807 8.91369 10.6539 8.72743 10.6539 8.52122C10.6539 8.16201 10.4809 7.91589 10.135 7.77619L5.29899 5.98681H4.00185V11.9736L8.65825 13.304L13.9998 11.3084C14.0065 10.9559 13.8734 10.6432 13.614 10.3771ZM2.67145 5.98681H0V13.304H2.67145V5.98681Z" fill="#1BB8E1"/>
</svg>
