<svg width="15" height="16" viewBox="0 0 15 16" fill="none" xmlns="http://www.w3.org/2000/svg">
<path d="M0.25 2.09375C0.25 1.007 1.132 0.125 2.21875 0.125H5.03125C5.25503 0.125 5.46964 0.213895 5.62787 0.372129C5.78611 0.530362 5.875 0.744974 5.875 0.96875C5.875 1.19253 5.78611 1.40714 5.62787 1.56537C5.46964 1.72361 5.25503 1.8125 5.03125 1.8125H2.21875C2.14416 1.8125 2.07262 1.84213 2.01988 1.89488C1.96713 1.94762 1.9375 2.01916 1.9375 2.09375V13.9062C1.9375 14.0615 2.0635 14.1875 2.21875 14.1875H5.03125C5.25503 14.1875 5.46964 14.2764 5.62787 14.4346C5.78611 14.5929 5.875 14.8075 5.875 15.0312C5.875 15.255 5.78611 15.4696 5.62787 15.6279C5.46964 15.7861 5.25503 15.875 5.03125 15.875H2.21875C1.69661 15.875 1.19585 15.6676 0.826634 15.2984C0.457421 14.9292 0.25 14.4284 0.25 13.9062V2.09375ZM11.995 7.15625L9.77875 4.94C9.66769 4.83687 9.58649 4.70569 9.54373 4.56029C9.50096 4.41488 9.4982 4.26063 9.53575 4.11379C9.57329 3.96695 9.64975 3.83296 9.75706 3.72593C9.86437 3.6189 9.99856 3.54279 10.1455 3.50563C10.2922 3.46803 10.4463 3.47065 10.5916 3.51322C10.7369 3.55578 10.868 3.63671 10.9712 3.7475L14.6275 7.40375C14.7855 7.56195 14.8743 7.77641 14.8743 8C14.8743 8.22359 14.7855 8.43805 14.6275 8.59625L10.9712 12.2525C10.8681 12.3636 10.7369 12.4448 10.5915 12.4875C10.4461 12.5303 10.2919 12.533 10.145 12.4955C9.99821 12.458 9.86421 12.3815 9.75718 12.2742C9.65015 12.1669 9.57404 12.0327 9.53688 11.8858C9.49928 11.7391 9.5019 11.585 9.54447 11.4397C9.58703 11.2944 9.66796 11.1632 9.77875 11.06L11.995 8.84375H5.59375C5.36997 8.84375 5.15536 8.75485 4.99713 8.59662C4.83889 8.43839 4.75 8.22378 4.75 8C4.75 7.77622 4.83889 7.56161 4.99713 7.40338C5.15536 7.24514 5.36997 7.15625 5.59375 7.15625H11.995Z" fill="#F50000"/>
</svg>
