<svg width="11" height="14" viewBox="0 0 11 14" fill="none" xmlns="http://www.w3.org/2000/svg">
<path fill-rule="evenodd" clip-rule="evenodd" d="M5.5 2C4.96957 2 4.46086 2.21071 4.08579 2.58579C3.71071 2.96086 3.5 3.46957 3.5 4V5H7.5V4C7.5 3.46957 7.28929 2.96086 6.91421 2.58579C6.53914 2.21071 6.03043 2 5.5 2ZM1.5 4V5C1.10218 5 0.720644 5.15804 0.43934 5.43934C0.158035 5.72064 0 6.10218 0 6.5V12.5C0 12.8978 0.158035 13.2794 0.43934 13.5607C0.720644 13.842 1.10218 14 1.5 14H9.5C9.89782 14 10.2794 13.842 10.5607 13.5607C10.842 13.2794 11 12.8978 11 12.5V6.5C11 6.10218 10.842 5.72064 10.5607 5.43934C10.2794 5.15804 9.89782 5 9.5 5V4C9.5 2.93913 9.07857 1.92172 8.32843 1.17157C7.57828 0.421427 6.56087 0 5.5 0C4.43913 0 3.42172 0.421427 2.67157 1.17157C1.92143 1.92172 1.5 2.93913 1.5 4ZM5.5 10.75C5.66415 10.75 5.8267 10.7177 5.97835 10.6548C6.13001 10.592 6.26781 10.5 6.38388 10.3839C6.49996 10.2678 6.59203 10.13 6.65485 9.97835C6.71767 9.8267 6.75 9.66415 6.75 9.5C6.75 9.33585 6.71767 9.1733 6.65485 9.02165C6.59203 8.86999 6.49996 8.73219 6.38388 8.61612C6.26781 8.50004 6.13001 8.40797 5.97835 8.34515C5.8267 8.28233 5.66415 8.25 5.5 8.25C5.16848 8.25 4.85054 8.3817 4.61612 8.61612C4.3817 8.85054 4.25 9.16848 4.25 9.5C4.25 9.83152 4.3817 10.1495 4.61612 10.3839C4.85054 10.6183 5.16848 10.75 5.5 10.75Z" fill="#1BB8E1"/>
</svg>
